<svg width="588" height="222" viewBox="0 0 588 222" fill="none" xmlns="http://www.w3.org/2000/svg">
<circle cx="110.779" cy="110.779" r="110.779" fill="black"/>
<g clip-path="url(#clip0_61_29528)">
<path d="M92.9502 83.9975C94.581 83.6383 96.7809 83.2315 98.453 83.1208C104.449 82.7448 110.518 83.3724 116.366 84.7109C117.646 85.0042 118.674 85.627 119.842 86.177C122.214 87.2938 125.044 88.0257 127.582 88.7345C135.098 90.8338 143.161 92.8752 150.958 91.1458C153.383 90.3669 155.931 89.4207 158.176 88.2261C159.448 87.5492 160.707 86.6746 161.875 85.9651C167.165 82.7495 172.34 80.9439 178.609 82.0431C181.067 82.4741 183.743 82.7079 185.983 84.1406C187.051 84.7753 188 85.8098 188.894 86.4892C190.115 87.4165 193.259 88.6667 194.74 88.9234C195.522 89.0589 195.522 89.3614 196.017 89.4834C196.358 89.7761 197.141 91.2528 197.55 92.4795V95.8796C197.099 96.8298 196.443 97.8268 195.522 98.4158C192.331 100.399 188.138 100.66 184.606 101.792C179.116 103.551 176.031 107.104 173.136 111.82C172.574 112.735 171.783 114.28 171.115 115.098C168.534 118.251 165.443 121.336 161.891 123.386C161.26 123.745 160.4 123.858 159.925 124.141C158.122 125.253 156.381 126.259 154.469 127.166C151.313 128.664 144.459 130.197 143.103 133.704C143.169 134.3 143.222 134.597 143.363 135.181C144.437 135.298 145.257 135.739 146.338 136.005C149.155 136.699 152.8 135.958 154.377 139.053C154.82 139.92 154.792 140.902 154.82 141.828C151.499 142.406 148.083 141.882 144.726 141.717L138.982 141.46C137.452 141.393 135.884 141.424 134.406 141.044C133.871 139.98 133.643 138.536 132.967 137.576C132.045 136.343 130.748 134.176 129.596 133.216C125.747 130.006 119.614 125.837 114.782 124.683C109.202 123.575 103.244 124.227 98.0257 126.439C93.6128 128.309 89.3129 131.063 86.1522 134.659C85.7901 135.07 85.5728 135.925 85.4389 136.453C89.3495 137.069 94.0941 136.56 97.9099 138.335C99.4505 139.051 99.8911 140.507 100.337 141.983L99.8413 142.936C96.4198 142.692 92.6687 143.143 89.2011 142.921C87.8518 142.836 86.451 142.787 85.1087 142.634C84.1041 142.519 83.0024 142.136 81.9879 142.007C77.7733 141.296 72.9455 140.694 72.6897 135.357C72.6859 135.278 72.7318 134.903 72.739 134.804L72.6294 134.764C72.0571 135.25 71.1793 137.591 70.345 138.613C69.1214 140.113 68.2543 141.103 66.4351 141.993C64.5385 142.92 62.7914 143.182 60.7475 143.511C59.3674 143.732 57.9066 144.111 56.5181 144.265C55.7304 144.352 54.7709 144.335 53.9655 144.369L49.4602 144.6C47.8397 144.694 46.0017 144.972 44.4027 144.909C41.0118 144.775 37.5704 144.565 34.1846 144.368C30.3589 144.146 26.7617 143.475 22.8967 143.779C20.8098 143.943 19.1404 144.128 17.0741 144.451L16.9382 144.31C16.8648 143.652 17.4241 143.533 17.7797 142.877L17.7204 142.757C17.4869 142.748 17.4306 142.762 17.2141 142.685C17.3786 142.519 17.6302 142.465 17.8524 142.374C18.9594 141.923 19.9361 140.926 21.0006 140.323C22.7616 139.413 25.006 138.087 26.8985 137.522C30.8788 136.335 34.5292 135.013 38.316 133.289C40.1769 132.491 42.0667 131.867 43.8899 130.966C49.1725 128.358 53.1065 123.008 56.1677 118.133C58.1767 114.934 59.7091 110.942 61.8567 107.957C65.0782 103.479 68.3838 98.9294 72.3543 95.1054C73.9124 93.6259 75.6723 91.8693 77.4217 90.6801C79.4807 89.2805 81.7278 87.8759 84.005 86.8905C86.2135 86.0067 88.7079 85.004 91.0141 84.5141C91.4774 84.5554 93.6359 84.515 93.9646 84.2478L93.928 84.1693C93.5928 84.0984 93.2889 84.0502 92.9502 83.9975ZM41.9475 133.638C42.1119 133.578 43.2229 133.207 43.2743 133.112C43.0557 133.058 43.0689 133.057 42.846 133.084C42.2338 133.314 42.0683 133.36 41.5381 133.754L41.5889 133.844L41.9475 133.638Z" fill="white"/>
<path d="M42.8463 133.084C43.0692 133.057 43.056 133.058 43.2745 133.112C43.2231 133.207 42.1121 133.578 41.9478 133.638L41.5892 133.844L41.5383 133.754C42.0686 133.36 42.234 133.314 42.8463 133.084Z" fill="white" fill-opacity="0.815686"/>
<path d="M91.0142 84.5139C91.5431 84.2928 92.3825 84.095 92.9503 83.9973C93.289 84.05 93.5929 84.0982 93.9281 84.1691L93.9647 84.2476C93.636 84.5149 91.4775 84.5552 91.0142 84.5139Z" fill="white" fill-opacity="0.898039"/>
</g>
<path d="M323.299 173.775C311.713 173.775 301.706 171.28 293.28 166.29C284.853 161.245 278.367 154.094 273.821 144.836C269.275 135.522 267.002 124.517 267.002 111.822V111.656C267.002 98.9603 269.275 87.9835 273.821 78.7252C278.422 69.467 284.936 62.3432 293.363 57.3537C301.789 52.3088 311.768 49.7863 323.299 49.7863C334.775 49.7863 344.726 52.3088 353.153 57.3537C361.58 62.3986 368.066 69.5502 372.612 78.8084C377.158 88.0112 379.431 98.9603 379.431 111.656V111.822C379.431 124.517 377.158 135.494 372.612 144.753C368.066 154.011 361.58 161.162 353.153 166.207C344.782 171.252 334.831 173.775 323.299 173.775ZM323.299 157.226C330.95 157.226 337.547 155.369 343.091 151.655C348.635 147.94 352.904 142.674 355.897 135.855C358.891 129.036 360.388 121.025 360.388 111.822V111.656C360.388 102.397 358.863 94.3866 355.814 87.6231C352.82 80.8042 348.524 75.5653 342.925 71.9063C337.381 68.1919 330.839 66.3347 323.299 66.3347C315.704 66.3347 309.107 68.1642 303.508 71.8232C297.964 75.4821 293.668 80.721 290.618 87.54C287.569 94.3035 286.045 102.342 286.045 111.656V111.822C286.045 121.08 287.569 129.119 290.618 135.938C293.668 142.757 297.964 148.023 303.508 151.738C309.052 155.397 315.649 157.226 323.299 157.226ZM425.833 173.525C417.185 173.525 410.726 171.585 406.457 167.704C402.244 163.768 400.137 157.42 400.137 148.661V98.6H387.58V84.2968H400.137V61.5116H418.598V84.2968H434.98V98.6H418.598V147.663C418.598 152.098 419.568 155.147 421.509 156.81C423.449 158.418 426.332 159.222 430.157 159.222C431.1 159.222 431.959 159.194 432.735 159.139C433.567 159.028 434.315 158.945 434.98 158.889V172.777C433.927 172.943 432.597 173.109 430.989 173.276C429.381 173.442 427.662 173.525 425.833 173.525ZM480.551 173.525C471.902 173.525 465.444 171.585 461.175 167.704C456.962 163.768 454.855 157.42 454.855 148.661V98.6H442.298V84.2968H454.855V61.5116H473.316V84.2968H489.698V98.6H473.316V147.663C473.316 152.098 474.286 155.147 476.227 156.81C478.167 158.418 481.05 159.222 484.875 159.222C485.818 159.222 486.677 159.194 487.453 159.139C488.285 159.028 489.033 158.945 489.698 158.889V172.777C488.645 172.943 487.314 173.109 485.707 173.276C484.099 173.442 482.38 173.525 480.551 173.525ZM540.175 173.525C531.804 173.525 524.486 171.696 518.221 168.037C512.012 164.322 507.189 159.083 503.752 152.32C500.315 145.501 498.596 137.407 498.596 128.038V127.871C498.596 118.558 500.315 110.519 503.752 103.756C507.244 96.9922 512.095 91.781 518.304 88.1221C524.569 84.4631 531.831 82.6337 540.092 82.6337C548.408 82.6337 555.67 84.4631 561.879 88.1221C568.144 91.7256 572.995 96.9091 576.432 103.673C579.924 110.436 581.671 118.502 581.671 127.871V128.038C581.671 137.462 579.924 145.556 576.432 152.32C572.995 159.083 568.171 164.322 561.962 168.037C555.753 171.696 548.491 173.525 540.175 173.525ZM540.258 158.39C544.915 158.39 548.962 157.198 552.399 154.815C555.836 152.431 558.497 148.994 560.382 144.503C562.267 139.957 563.21 134.469 563.21 128.038V127.871C563.21 121.496 562.267 116.063 560.382 111.573C558.497 107.027 555.809 103.589 552.316 101.261C548.823 98.8772 544.749 97.6852 540.092 97.6852C535.49 97.6852 531.443 98.8772 527.951 101.261C524.514 103.645 521.825 107.082 519.884 111.573C517.944 116.063 516.974 121.496 516.974 127.871V128.038C516.974 134.469 517.916 139.957 519.801 144.503C521.742 148.994 524.458 152.431 527.951 154.815C531.443 157.198 535.546 158.39 540.258 158.39Z" fill="white"/>
<defs>
<clipPath id="clip0_61_29528">
<rect width="180.907" height="180.907" fill="white" transform="translate(16.6433 33.2554)"/>
</clipPath>
</defs>
</svg>
