<svg width="588" height="222" viewBox="0 0 588 222" fill="none" xmlns="http://www.w3.org/2000/svg">
<circle cx="110.779" cy="110.779" r="110.779" fill="white"/>
<g clip-path="url(#clip0_108_30008)">
<path d="M92.9502 83.997C94.581 83.6378 96.7809 83.231 98.453 83.1203C104.449 82.7443 110.518 83.3719 116.366 84.7104C117.646 85.0037 118.674 85.6265 119.842 86.1766C122.214 87.2933 125.044 88.0252 127.582 88.734C135.098 90.8333 143.161 92.8747 150.958 91.1453C153.383 90.3664 155.931 89.4203 158.176 88.2256C159.448 87.5487 160.707 86.6741 161.875 85.9646C167.165 82.749 172.34 80.9434 178.609 82.0426C181.067 82.4736 183.743 82.7074 185.983 84.1401C187.051 84.7748 188 85.8094 188.894 86.4887C190.115 87.416 193.259 88.6662 194.74 88.9229C195.522 89.0584 195.522 89.3609 196.017 89.4829C196.358 89.7756 197.141 91.2523 197.55 92.479V95.8791C197.099 96.8293 196.443 97.8263 195.522 98.4153C192.331 100.399 188.138 100.659 184.606 101.791C179.116 103.551 176.031 107.103 173.136 111.819C172.574 112.735 171.783 114.28 171.115 115.097C168.534 118.251 165.443 121.336 161.891 123.385C161.26 123.745 160.4 123.858 159.925 124.14C158.122 125.252 156.381 126.259 154.469 127.166C151.313 128.664 144.459 130.196 143.103 133.703C143.169 134.3 143.222 134.596 143.363 135.18C144.437 135.298 145.257 135.738 146.338 136.004C149.155 136.699 152.8 135.958 154.377 139.053C154.82 139.919 154.792 140.902 154.82 141.827C151.499 142.406 148.083 141.881 144.726 141.717L138.982 141.46C137.452 141.393 135.884 141.424 134.406 141.044C133.871 139.979 133.643 138.536 132.967 137.576C132.045 136.343 130.748 134.176 129.596 133.216C125.747 130.006 119.614 125.836 114.782 124.683C109.202 123.575 103.244 124.227 98.0257 126.439C93.6128 128.309 89.3129 131.062 86.1522 134.658C85.7901 135.07 85.5728 135.925 85.4389 136.452C89.3495 137.069 94.0941 136.56 97.9099 138.335C99.4505 139.051 99.8911 140.507 100.337 141.983L99.8413 142.936C96.4198 142.691 92.6687 143.143 89.2011 142.921C87.8518 142.835 86.451 142.787 85.1087 142.634C84.1041 142.519 83.0024 142.136 81.9879 142.007C77.7733 141.296 72.9455 140.694 72.6897 135.357C72.6859 135.277 72.7318 134.903 72.739 134.804L72.6294 134.763C72.0571 135.249 71.1793 137.591 70.345 138.613C69.1214 140.113 68.2543 141.103 66.4351 141.992C64.5385 142.92 62.7914 143.181 60.7475 143.51C59.3674 143.732 57.9066 144.111 56.5181 144.264C55.7304 144.352 54.7709 144.334 53.9655 144.369L49.4602 144.599C47.8397 144.694 46.0017 144.972 44.4027 144.908C41.0118 144.774 37.5704 144.565 34.1846 144.368C30.3589 144.145 26.7617 143.475 22.8967 143.779C20.8098 143.943 19.1404 144.127 17.0741 144.451L16.9382 144.309C16.8648 143.651 17.4241 143.533 17.7797 142.877L17.7204 142.757C17.4869 142.748 17.4306 142.762 17.2141 142.684C17.3786 142.518 17.6302 142.464 17.8524 142.373C18.9594 141.923 19.9361 140.925 21.0006 140.322C22.7616 139.412 25.006 138.086 26.8985 137.522C30.8788 136.335 34.5292 135.012 38.316 133.288C40.1769 132.49 42.0667 131.867 43.8899 130.966C49.1725 128.357 53.1065 123.008 56.1677 118.133C58.1767 114.933 59.7091 110.942 61.8567 107.956C65.0782 103.478 68.3838 98.9289 72.3543 95.105C73.9124 93.6254 75.6723 91.8689 77.4217 90.6796C79.4807 89.28 81.7278 87.8754 84.005 86.89C86.2135 86.0063 88.7079 85.0035 91.0141 84.5136C91.4774 84.5549 93.6359 84.5146 93.9646 84.2473L93.928 84.1688C93.5928 84.0979 93.2889 84.0497 92.9502 83.997ZM41.9475 133.638C42.1119 133.578 43.2229 133.207 43.2743 133.111C43.0557 133.058 43.0689 133.057 42.846 133.083C42.2338 133.314 42.0683 133.36 41.5381 133.754L41.5889 133.844L41.9475 133.638Z" fill="black"/>
<path d="M42.8451 133.083C43.0679 133.057 43.0548 133.058 43.2733 133.112C43.2219 133.207 42.1109 133.578 41.9465 133.638L41.588 133.844L41.5371 133.754C42.0674 133.36 42.2328 133.314 42.8451 133.083Z" fill="black" fill-opacity="0.815686"/>
<path d="M91.0137 84.5136C91.5426 84.2925 92.382 84.0948 92.9498 83.9971C93.2885 84.0497 93.5924 84.0979 93.9276 84.1689L93.9642 84.2473C93.6355 84.5146 91.477 84.555 91.0137 84.5136Z" fill="black" fill-opacity="0.898039"/>
</g>
<path d="M323.299 173.774C311.713 173.774 301.706 171.279 293.279 166.29C284.853 161.245 278.366 154.093 273.82 144.835C269.274 135.522 267.001 124.517 267.001 111.822V111.655C267.001 98.9598 269.274 87.983 273.82 78.7248C278.422 69.4665 284.936 62.3427 293.362 57.3532C301.789 52.3083 311.768 49.7858 323.299 49.7858C334.775 49.7858 344.726 52.3083 353.153 57.3532C361.58 62.3981 368.066 69.5497 372.612 78.8079C377.158 88.0107 379.431 98.9598 379.431 111.655V111.822C379.431 124.517 377.158 135.494 372.612 144.752C368.066 154.01 361.58 161.162 353.153 166.207C344.782 171.252 334.83 173.774 323.299 173.774ZM323.299 157.226C330.95 157.226 337.547 155.369 343.091 151.654C348.635 147.94 352.903 142.673 355.897 135.854C358.891 129.035 360.388 121.024 360.388 111.822V111.655C360.388 102.397 358.863 94.3861 355.814 87.6226C352.82 80.8037 348.524 75.5648 342.924 71.9058C337.381 68.1914 330.839 66.3342 323.299 66.3342C315.704 66.3342 309.107 68.1637 303.508 71.8227C297.964 75.4816 293.667 80.7205 290.618 87.5395C287.569 94.303 286.045 102.342 286.045 111.655V111.822C286.045 121.08 287.569 129.118 290.618 135.937C293.667 142.756 297.964 148.023 303.508 151.737C309.052 155.396 315.649 157.226 323.299 157.226ZM425.833 173.525C417.184 173.525 410.726 171.584 406.457 167.704C402.244 163.767 400.137 157.42 400.137 148.66V98.5995H387.58V84.2963H400.137V61.5111H418.598V84.2963H434.98V98.5995H418.598V147.663C418.598 152.098 419.568 155.147 421.509 156.81C423.449 158.418 426.332 159.221 430.157 159.221C431.099 159.221 431.959 159.194 432.735 159.138C433.566 159.027 434.315 158.944 434.98 158.889V172.776C433.927 172.943 432.596 173.109 430.989 173.275C429.381 173.441 427.662 173.525 425.833 173.525ZM480.551 173.525C471.902 173.525 465.444 171.584 461.175 167.704C456.962 163.767 454.855 157.42 454.855 148.66V98.5995H442.298V84.2963H454.855V61.5111H473.316V84.2963H489.698V98.5995H473.316V147.663C473.316 152.098 474.286 155.147 476.226 156.81C478.167 158.418 481.05 159.221 484.875 159.221C485.817 159.221 486.677 159.194 487.453 159.138C488.284 159.027 489.033 158.944 489.698 158.889V172.776C488.645 172.943 487.314 173.109 485.706 173.275C484.099 173.441 482.38 173.525 480.551 173.525ZM540.175 173.525C531.804 173.525 524.486 171.695 518.221 168.036C512.012 164.322 507.189 159.083 503.752 152.319C500.314 145.5 498.596 137.406 498.596 128.037V127.871C498.596 118.557 500.314 110.519 503.752 103.755C507.244 96.9918 512.095 91.7805 518.304 88.1216C524.569 84.4626 531.831 82.6332 540.092 82.6332C548.407 82.6332 555.67 84.4626 561.879 88.1216C568.143 91.7251 572.994 96.9086 576.432 103.672C579.924 110.436 581.67 118.502 581.67 127.871V128.037C581.67 137.462 579.924 145.556 576.432 152.319C572.994 159.083 568.171 164.322 561.962 168.036C555.753 171.695 548.491 173.525 540.175 173.525ZM540.258 158.39C544.915 158.39 548.962 157.198 552.399 154.814C555.836 152.43 558.497 148.993 560.382 144.503C562.267 139.957 563.209 134.468 563.209 128.037V127.871C563.209 121.496 562.267 116.063 560.382 111.572C558.497 107.026 555.808 103.589 552.316 101.261C548.823 98.8767 544.748 97.6847 540.092 97.6847C535.49 97.6847 531.443 98.8767 527.951 101.261C524.513 103.644 521.825 107.082 519.884 111.572C517.944 116.063 516.974 121.496 516.974 127.871V128.037C516.974 134.468 517.916 139.957 519.801 144.503C521.741 148.993 524.458 152.43 527.951 154.814C531.443 157.198 535.546 158.39 540.258 158.39Z" fill="white"/>
<defs>
<clipPath id="clip0_108_30008">
<rect width="180.907" height="180.907" fill="white" transform="translate(16.6426 33.2549)"/>
</clipPath>
</defs>
</svg>
